<svg width="32" height="37" viewBox="0 0 32 37" fill="none" xmlns="http://www.w3.org/2000/svg">
<path d="M20.9411 31.7473L20.9618 31.6271L21.163 30.4575H19.9763H11.8191H10.6324L10.8336 31.6271L10.8543 31.7473C10.8543 31.7474 10.8543 31.7474 10.8543 31.7475C10.8543 31.7476 10.8543 31.7477 10.8543 31.7478C11.2769 34.2103 13.3991 36.0001 15.8972 36.0001C18.3955 36.0001 20.5184 34.2105 20.941 31.7478C20.941 31.7477 20.9411 31.7475 20.9411 31.7473Z" stroke="#C0C0C0" stroke-width="2"/>
<path d="M30.4986 25.4452L30.498 25.4446C30.1331 25.0795 29.7647 24.7736 29.4441 24.5073L29.4297 24.4953L29.4296 24.4952C28.7317 23.9157 28.2409 23.496 27.8746 22.7921C27.5061 22.0838 27.2191 20.9876 27.2191 19.0207V15.7617C27.2191 10.8625 24.0168 6.52711 19.4446 5.02064C19.4647 4.87023 19.4749 4.71792 19.4749 4.56409C19.4749 2.59793 17.8766 1 15.9102 1C13.944 1 12.3461 2.59812 12.3461 4.56409C12.3461 4.71791 12.3563 4.87023 12.3764 5.02064C7.804 6.52712 4.60189 10.8625 4.60189 15.7617V19.0207C4.60189 20.9876 4.31493 22.0838 3.94639 22.7921C3.58015 23.4961 3.08928 23.9157 2.39142 24.4952L2.39134 24.4953L2.37723 24.507C2.05655 24.7733 1.68803 25.0794 1.32301 25.4445L1.29289 25.4747L1 25.7676V26.1818V29.415V30.415H2H29.8209H30.8209V29.415V26.1818V25.7682L30.5288 25.4754L30.4986 25.4452Z" stroke="#C0C0C0" stroke-width="2"/>
</svg>
