<svg width="23" height="23" viewBox="0 0 23 23" fill="none" xmlns="http://www.w3.org/2000/svg">
<path d="M19.3372 2.67418C17.5591 0.894778 15.2121 -0.00133124 12.8818 1.48436e-06C10.5509 -0.00133124 8.20449 0.894778 6.42637 2.67418C4.64696 4.4523 3.75017 6.79932 3.75288 9.12893C3.75086 10.7565 4.19822 12.3862 5.06613 13.8304L0.645384 18.2511C-0.215128 19.1116 -0.215128 20.5061 0.645384 21.3666C1.50521 22.2272 2.9004 22.2272 3.76023 21.3666L8.18162 16.9453C9.62518 17.8138 11.2555 18.2605 12.8818 18.2585C15.212 18.2605 17.5591 17.3644 19.3372 15.585C21.1159 13.8069 22.0127 11.4605 22.0107 9.12889C22.0134 6.79932 21.116 4.4523 19.3372 2.67418ZM16.8443 13.0928C15.7461 14.1905 14.322 14.7319 12.8818 14.7346C11.4416 14.7319 10.0182 14.1905 8.91849 13.0928C7.82088 11.9932 7.27945 10.5698 7.27674 9.12893C7.27945 7.68941 7.82083 6.26533 8.91849 5.16634C10.0181 4.06873 11.4416 3.5273 12.8818 3.52459C14.322 3.5273 15.7461 4.06869 16.845 5.16634C17.9426 6.26533 18.4841 7.68941 18.4868 9.12893C18.4841 10.5698 17.9426 11.9932 16.8443 13.0928Z" fill="#C0C0C0"/>
</svg>
