<svg width="26" height="28" viewBox="0 0 26 28" fill="none" xmlns="http://www.w3.org/2000/svg">
<path fill-rule="evenodd" clip-rule="evenodd" d="M13.0623 0.950202C9.96138 0.94697 6.96067 2.0763 4.59794 4.1358C2.2352 6.19531 0.664874 9.05037 0.168376 12.1893C-0.328121 15.3283 0.281662 18.546 1.88845 21.2658C3.49523 23.9856 5.99399 26.0297 8.93694 27.0318C9.59379 27.155 9.8261 26.7361 9.8261 26.3829C9.8261 26.0296 9.8261 25.2246 9.8261 24.1074C6.18134 24.9207 5.41234 22.3084 5.41234 22.3084C5.17054 21.4988 4.65685 20.8032 3.96244 20.3451C2.78491 19.5236 4.05857 19.5236 4.05857 19.5236C4.47135 19.5834 4.86544 19.7387 5.21102 19.9778C5.55659 20.2169 5.84458 20.5335 6.05317 20.9037C6.23041 21.2332 6.46937 21.5237 6.75633 21.7583C7.04329 21.9929 7.37261 22.1672 7.72539 22.271C8.07817 22.3748 8.44746 22.4061 8.81208 22.3632C9.17669 22.3203 9.52946 22.2039 9.85013 22.0209C9.9004 21.3451 10.1845 20.71 10.6512 20.2301C7.75139 19.8933 4.70742 18.7432 4.70742 13.6583C4.68751 12.33 5.16648 11.0447 6.04516 10.0685C5.65381 8.91354 5.69955 7.65 6.17333 6.52797C6.17333 6.52797 7.27076 6.16653 9.76201 7.89983C11.9013 7.29749 14.1593 7.29749 16.2985 7.89983C18.7898 6.16653 19.8792 6.52797 19.8792 6.52797C20.3596 7.63813 20.4167 8.8926 20.0394 10.0439C20.9181 11.02 21.3971 12.3053 21.3772 13.6337C21.3772 18.7761 18.3252 19.9015 15.4174 20.2054C15.7292 20.5268 15.9699 20.9132 16.1234 21.3384C16.2768 21.7636 16.3392 22.2177 16.3066 22.6698C16.3066 24.4606 16.3066 25.9064 16.3066 26.3418C16.3066 26.7772 16.5389 27.114 17.2037 26.9825C20.1132 25.954 22.5745 23.9041 24.1529 21.1948C25.7313 18.4856 26.3252 15.2915 25.8297 12.1768C25.3342 9.06205 23.7811 6.22712 21.4449 4.17285C19.1087 2.11857 16.1397 0.977137 13.0623 0.950202Z" fill="#979797"/>
</svg>
