<svg width="25" height="21" viewBox="0 0 25 21" fill="none" xmlns="http://www.w3.org/2000/svg">
<path d="M7.862 21C17.296 21 22.456 12.92 22.456 5.91301C22.456 5.68352 22.456 5.45505 22.441 5.22762C23.4448 4.477 24.3114 3.5476 25 2.48293C24.0639 2.91175 23.0708 3.19296 22.054 3.31719C23.1247 2.65452 23.9261 1.61225 24.309 0.38436C23.3022 1.002 22.2006 1.43728 21.052 1.67142C20.2787 0.821323 19.2559 0.258412 18.1419 0.0697939C17.0279 -0.118825 15.8848 0.0773644 14.8895 0.628001C13.8943 1.17864 13.1023 2.05302 12.6362 3.11585C12.1701 4.17868 12.0558 5.37069 12.311 6.50744C10.2718 6.40175 8.2768 5.85391 6.45564 4.89949C4.63448 3.94506 3.02784 2.60538 1.74 0.967411C1.08409 2.13472 0.8832 3.51657 1.17823 4.83162C1.47326 6.14667 2.24202 7.29603 3.328 8.0457C2.51174 8.02069 1.71328 7.79306 1 7.38202C1 7.40373 1 7.42647 1 7.44921C1.00032 8.67343 1.41026 9.85985 2.16028 10.8072C2.9103 11.7546 3.95423 12.4046 5.115 12.6471C4.35987 12.86 3.56758 12.8911 2.799 12.738C3.12676 13.7916 3.76486 14.713 4.62407 15.3732C5.48328 16.0335 6.52061 16.3996 7.591 16.4204C5.77474 17.896 3.53106 18.6971 1.221 18.6947C0.812904 18.6939 0.405204 18.6683 0 18.6182C2.34564 20.1743 5.07491 20.9997 7.862 20.9959" fill="#979797"/>
</svg>
