<svg width="20" height="17" viewBox="0 0 20 17" fill="none" xmlns="http://www.w3.org/2000/svg">
<path d="M6.08771 16.3015C13.3927 16.3015 17.3882 10.0293 17.3882 4.59005C17.3882 4.4119 17.3882 4.23455 17.3765 4.058C18.1538 3.47533 18.8248 2.75387 19.358 1.92741C18.6332 2.26028 17.8642 2.47857 17.0769 2.57501C17.906 2.0606 18.5265 1.25153 18.823 0.298364C18.0433 0.777812 17.1904 1.1157 16.301 1.29746C15.7022 0.637561 14.9102 0.200596 14.0476 0.0541783C13.185 -0.0922389 12.2999 0.060055 11.5293 0.487493C10.7586 0.914932 10.1454 1.59368 9.78447 2.41872C9.42354 3.24375 9.33504 4.16906 9.53267 5.05147C7.95363 4.96944 6.4089 4.54417 4.99874 3.80328C3.58858 3.0624 2.34452 2.02245 1.34732 0.750964C0.839435 1.6571 0.683881 2.72978 0.912327 3.7506C1.14077 4.77142 1.73605 5.66363 2.57694 6.24557C1.94489 6.22616 1.32663 6.04945 0.774321 5.73038C0.774321 5.74723 0.774321 5.76488 0.774321 5.78254C0.774572 6.73285 1.092 7.65383 1.67275 8.38924C2.25351 9.12466 3.06184 9.62925 3.96065 9.81743C3.37594 9.98269 2.76245 10.0068 2.16732 9.88805C2.42112 10.7059 2.91521 11.4211 3.58051 11.9336C4.24582 12.4462 5.04905 12.7304 5.87787 12.7465C4.4715 13.892 2.73417 14.5138 0.945446 14.512C0.629448 14.5113 0.313758 14.4915 0 14.4526C1.81628 15.6605 3.92961 16.3013 6.08771 16.2983" fill="#76C3DB"/>
</svg>
