<svg width="22" height="25" viewBox="0 0 22 25" fill="none" xmlns="http://www.w3.org/2000/svg">
<mask id="path-1-inside-1" fill="white">
<path d="M13.2482 16.3516H3.85266V17.2575H13.2482V16.3516Z"/>
</mask>
<path d="M13.2482 16.3516H3.85266V17.2575H13.2482V16.3516Z" fill="#73B1A8"/>
<path d="M3.85266 16.3516V14.9652H2.4663V16.3516H3.85266ZM13.2482 16.3516H14.6345V14.9652H13.2482V16.3516ZM13.2482 17.2575V18.6439H14.6345V17.2575H13.2482ZM3.85266 17.2575H2.4663V18.6439H3.85266V17.2575ZM3.85266 17.7379H13.2482V14.9652H3.85266V17.7379ZM11.8618 16.3516V17.2575H14.6345V16.3516H11.8618ZM13.2482 15.8712H3.85266V18.6439H13.2482V15.8712ZM5.23903 17.2575V16.3516H2.4663V17.2575H5.23903Z" fill="#73B1A8" mask="url(#path-1-inside-1)"/>
<mask id="path-3-inside-2" fill="white">
<path d="M13.2482 12.6826H3.85266V13.5856H13.2482V12.6826Z"/>
</mask>
<path d="M13.2482 12.6826H3.85266V13.5856H13.2482V12.6826Z" fill="#73B1A8"/>
<path d="M3.85266 12.6826V11.2963H2.4663V12.6826H3.85266ZM13.2482 12.6826H14.6345V11.2963H13.2482V12.6826ZM13.2482 13.5856V14.972H14.6345V13.5856H13.2482ZM3.85266 13.5856H2.4663V14.972H3.85266V13.5856ZM3.85266 14.069H13.2482V11.2963H3.85266V14.069ZM11.8618 12.6826V13.5856H14.6345V12.6826H11.8618ZM13.2482 12.1993H3.85266V14.972H13.2482V12.1993ZM5.23903 13.5856V12.6826H2.4663V13.5856H5.23903Z" fill="#73B1A8" mask="url(#path-3-inside-2)"/>
<mask id="path-5-inside-3" fill="white">
<path d="M13.2482 9.01025H3.85266V9.91623H13.2482V9.01025Z"/>
</mask>
<path d="M13.2482 9.01025H3.85266V9.91623H13.2482V9.01025Z" fill="#73B1A8"/>
<path d="M3.85266 9.01025V7.62389H2.4663V9.01025H3.85266ZM13.2482 9.01025H14.6345V7.62389H13.2482V9.01025ZM13.2482 9.91623V11.3026H14.6345V9.91623H13.2482ZM3.85266 9.91623H2.4663V11.3026H3.85266V9.91623ZM3.85266 10.3966H13.2482V7.62389H3.85266V10.3966ZM11.8618 9.01025V9.91623H14.6345V9.01025H11.8618ZM13.2482 8.52987H3.85266V11.3026H13.2482V8.52987ZM5.23903 9.91623V9.01025H2.4663V9.91623H5.23903Z" fill="#73B1A8" mask="url(#path-5-inside-3)"/>
<mask id="path-7-inside-4" fill="white">
<path d="M13.2483 5.34082H8.82184V6.2468H13.2483V5.34082Z"/>
</mask>
<path d="M13.2483 5.34082H8.82184V6.2468H13.2483V5.34082Z" fill="#73B1A8"/>
<path d="M8.82184 5.34082V3.95446H7.43547V5.34082H8.82184ZM13.2483 5.34082H14.6347V3.95446H13.2483V5.34082ZM13.2483 6.2468V7.63316H14.6347V6.2468H13.2483ZM8.82184 6.2468H7.43547V7.63316H8.82184V6.2468ZM8.82184 6.72718H13.2483V3.95446H8.82184V6.72718ZM11.8619 5.34082V6.2468H14.6347V5.34082H11.8619ZM13.2483 4.86044H8.82184V7.63316H13.2483V4.86044ZM10.2082 6.2468V5.34082H7.43547V6.2468H10.2082Z" fill="#73B1A8" mask="url(#path-7-inside-4)"/>
<mask id="path-9-inside-5" fill="white">
<path d="M16.871 19.3102V1.93079C16.871 1.81898 16.8615 1.70644 16.8424 1.60092C16.6867 0.691622 15.8992 0 14.9534 0H7.18361C6.62483 0 6.09136 0.22435 5.69778 0.62129L0.84951 5.50694C0.455541 5.90759 0.233398 6.44514 0.233398 7.00902V19.3102C0.233398 20.3729 1.09403 21.2407 2.15143 21.2407H14.9533C16.0104 21.2407 16.871 20.3729 16.871 19.3102ZM6.50443 1.34177V5.68324C6.50443 6.15416 6.32342 6.33631 5.8597 6.33631H1.55446L6.50443 1.34177ZM1.30994 19.3102V7.30004H6.43429C6.60278 7.30004 6.76142 7.25861 6.90096 7.18492C7.09811 7.08568 7.25674 6.92543 7.35181 6.73027C7.42523 6.58922 7.46308 6.43223 7.46308 6.26597V1.08554H14.9534C15.2993 1.08554 15.5977 1.29658 15.7247 1.60092C15.7692 1.70347 15.7912 1.8123 15.7912 1.93079V19.3102C15.7912 19.7741 15.4168 20.1555 14.9534 20.1555H2.15148C1.68776 20.1555 1.30994 19.7741 1.30994 19.3102Z"/>
</mask>
<path d="M16.871 19.3102V1.93079C16.871 1.81898 16.8615 1.70644 16.8424 1.60092C16.6867 0.691622 15.8992 0 14.9534 0H7.18361C6.62483 0 6.09136 0.22435 5.69778 0.62129L0.84951 5.50694C0.455541 5.90759 0.233398 6.44514 0.233398 7.00902V19.3102C0.233398 20.3729 1.09403 21.2407 2.15143 21.2407H14.9533C16.0104 21.2407 16.871 20.3729 16.871 19.3102ZM6.50443 1.34177V5.68324C6.50443 6.15416 6.32342 6.33631 5.8597 6.33631H1.55446L6.50443 1.34177ZM1.30994 19.3102V7.30004H6.43429C6.60278 7.30004 6.76142 7.25861 6.90096 7.18492C7.09811 7.08568 7.25674 6.92543 7.35181 6.73027C7.42523 6.58922 7.46308 6.43223 7.46308 6.26597V1.08554H14.9534C15.2993 1.08554 15.5977 1.29658 15.7247 1.60092C15.7692 1.70347 15.7912 1.8123 15.7912 1.93079V19.3102C15.7912 19.7741 15.4168 20.1555 14.9534 20.1555H2.15148C1.68776 20.1555 1.30994 19.7741 1.30994 19.3102Z" fill="#73B1A8"/>
<path d="M16.8424 1.60092L15.4758 1.83482L15.4781 1.84774L16.8424 1.60092ZM5.69778 0.62129L6.68185 1.59783L6.68224 1.59743L5.69778 0.62129ZM0.84951 5.50694L-0.134565 4.5304L-0.138996 4.53491L0.84951 5.50694ZM14.9533 21.2407V19.8543V21.2407ZM6.50443 1.34177H7.89079V-2.02655L5.51973 0.365861L6.50443 1.34177ZM1.55446 6.33631L0.569768 5.3604L-1.77142 7.72267H1.55446V6.33631ZM1.30994 7.30004V5.91368H-0.076426V7.30004H1.30994ZM6.90096 7.18492L6.27765 5.94657L6.26553 5.95268L6.25352 5.95902L6.90096 7.18492ZM7.35181 6.73027L6.12206 6.09018L6.11355 6.10653L6.10548 6.1231L7.35181 6.73027ZM7.46308 1.08554V-0.300826H6.07671V1.08554H7.46308ZM15.7247 1.60092L14.4453 2.13491L14.449 2.1437L14.4528 2.15245L15.7247 1.60092ZM18.2573 19.3102V1.93079H15.4846V19.3102H18.2573ZM18.2573 1.93079C18.2573 1.74286 18.2415 1.54735 18.2066 1.35409L15.4781 1.84774C15.4814 1.86552 15.4846 1.8951 15.4846 1.93079H18.2573ZM18.2089 1.36703C17.9424 -0.189729 16.593 -1.38636 14.9534 -1.38636V1.38636C15.2054 1.38636 15.4311 1.57297 15.4759 1.83481L18.2089 1.36703ZM14.9534 -1.38636H7.18361V1.38636H14.9534V-1.38636ZM7.18361 -1.38636C6.25156 -1.38636 5.36473 -1.01181 4.71332 -0.354847L6.68224 1.59743C6.818 1.46051 6.99809 1.38636 7.18361 1.38636V-1.38636ZM4.71372 -0.355246L-0.134555 4.53041L1.83358 6.48348L6.68185 1.59783L4.71372 -0.355246ZM-0.138996 4.53491C-0.785918 5.19279 -1.15297 6.07862 -1.15297 7.00902H1.61976C1.61976 6.81167 1.697 6.62239 1.83802 6.47898L-0.138996 4.53491ZM-1.15297 7.00902V19.3102H1.61976V7.00902H-1.15297ZM-1.15297 19.3102C-1.15297 21.1293 0.319191 22.627 2.15143 22.627V19.8543C1.86887 19.8543 1.61976 19.6164 1.61976 19.3102H-1.15297ZM2.15143 22.627H14.9533V19.8543H2.15143V22.627ZM14.9533 22.627C16.7855 22.627 18.2573 21.1291 18.2573 19.3102H15.4846C15.4846 19.6166 15.2354 19.8543 14.9533 19.8543V22.627ZM5.11806 1.34177V5.68324H7.89079V1.34177H5.11806ZM5.11806 5.68324C5.11806 5.79485 5.08627 5.49872 5.37007 5.21167C5.65794 4.9205 5.96137 4.94994 5.8597 4.94994V7.72267C6.22174 7.72267 6.84754 7.66104 7.34184 7.16107C7.83207 6.66521 7.89079 6.04255 7.89079 5.68324H5.11806ZM5.8597 4.94994H1.55446V7.72267H5.8597V4.94994ZM2.53915 7.31221L7.48912 2.31767L5.51973 0.365861L0.569768 5.3604L2.53915 7.31221ZM2.6963 19.3102V7.30004H-0.076426V19.3102H2.6963ZM1.30994 8.68641H6.43429V5.91368H1.30994V8.68641ZM6.43429 8.68641C6.83294 8.68641 7.21333 8.58777 7.54839 8.41082L6.25352 5.95902C6.3095 5.92945 6.37263 5.91368 6.43429 5.91368V8.68641ZM7.52426 8.42326C7.98898 8.18935 8.36835 7.80916 8.59815 7.33744L6.10548 6.1231C6.14514 6.0417 6.20724 5.98201 6.27765 5.94657L7.52426 8.42326ZM8.58157 7.37036C8.76172 7.02425 8.84944 6.6466 8.84944 6.26597H6.07671C6.07671 6.21785 6.08875 6.15418 6.12206 6.09018L8.58157 7.37036ZM8.84944 6.26597V1.08554H6.07671V6.26597H8.84944ZM7.46308 2.4719H14.9534V-0.300826H7.46308V2.4719ZM14.9534 2.4719C14.7205 2.4719 14.5262 2.32863 14.4453 2.13491L17.0041 1.06693C16.6692 0.264534 15.878 -0.300826 14.9534 -0.300826V2.4719ZM14.4528 2.15245C14.4178 2.07166 14.4049 1.99168 14.4049 1.93079H17.1776C17.1776 1.63292 17.1206 1.33527 16.9967 1.04938L14.4528 2.15245ZM14.4049 1.93079V19.3102H17.1776V1.93079H14.4049ZM14.4049 19.3102C14.4049 19.0238 14.6359 18.7691 14.9534 18.7691V21.5418C16.1976 21.5418 17.1776 20.5245 17.1776 19.3102H14.4049ZM14.9534 18.7691H2.15148V21.5418H14.9534V18.7691ZM2.15148 18.7691C2.46114 18.7691 2.6963 19.0162 2.6963 19.3102H-0.076426C-0.076426 20.5321 0.914383 21.5418 2.15148 21.5418V18.7691Z" fill="#73B1A8" mask="url(#path-9-inside-5)"/>
<mask id="path-11-inside-6" fill="white">
<path d="M19.1126 3.71436H17.8205L17.887 4.79989H19.1125C19.5762 4.79989 19.9511 5.17753 19.9511 5.64515V23.0246C19.9511 23.4885 19.5762 23.8698 19.1125 23.8698H6.30765C5.96143 23.8698 5.66292 23.6551 5.53585 23.3541C5.49477 23.2519 5.46944 23.143 5.46944 23.0246V22.269H4.39294V23.0246C4.39294 23.1364 4.40251 23.2483 4.42161 23.3541C4.57724 24.2601 5.36484 24.955 6.3077 24.955H19.1126C20.17 24.955 21.0277 24.0872 21.0277 23.0246V5.64519C21.0277 4.57891 20.17 3.71436 19.1126 3.71436Z"/>
</mask>
<path d="M19.1126 3.71436H17.8205L17.887 4.79989H19.1125C19.5762 4.79989 19.9511 5.17753 19.9511 5.64515V23.0246C19.9511 23.4885 19.5762 23.8698 19.1125 23.8698H6.30765C5.96143 23.8698 5.66292 23.6551 5.53585 23.3541C5.49477 23.2519 5.46944 23.143 5.46944 23.0246V22.269H4.39294V23.0246C4.39294 23.1364 4.40251 23.2483 4.42161 23.3541C4.57724 24.2601 5.36484 24.955 6.3077 24.955H19.1126C20.17 24.955 21.0277 24.0872 21.0277 23.0246V5.64519C21.0277 4.57891 20.17 3.71436 19.1126 3.71436Z" fill="#73B1A8"/>
<path d="M17.8205 3.71436V2.32799H16.3467L16.4367 3.79907L17.8205 3.71436ZM17.887 4.79989L16.5032 4.88461L16.5829 6.18626H17.887V4.79989ZM5.53585 23.3541L4.24952 23.8711L4.25399 23.8823L4.25865 23.8933L5.53585 23.3541ZM5.46944 22.269H6.8558V20.8826H5.46944V22.269ZM4.39294 22.269V20.8826H3.00658V22.269H4.39294ZM4.42161 23.3541L5.788 23.1194L5.78596 23.1081L4.42161 23.3541ZM21.0277 5.64519H22.4141V5.64513L21.0277 5.64519ZM19.1126 2.32799H17.8205V5.10072H19.1126V2.32799ZM16.4367 3.79907L16.5032 4.88461L19.2707 4.71518L19.2043 3.62964L16.4367 3.79907ZM17.887 6.18626H19.1125V3.41353H17.887V6.18626ZM19.1125 6.18626C18.8004 6.18626 18.5647 5.93297 18.5647 5.64515H21.3374C21.3374 4.42209 20.3521 3.41353 19.1125 3.41353V6.18626ZM18.5647 5.64515V23.0246H21.3374V5.64515H18.5647ZM18.5647 23.0246C18.5647 22.737 18.7965 22.4834 19.1125 22.4834V25.2562C20.356 25.2562 21.3374 24.24 21.3374 23.0246H18.5647ZM19.1125 22.4834H6.30765V25.2562H19.1125V22.4834ZM6.30765 22.4834C6.54777 22.4834 6.73487 22.6297 6.81305 22.8148L4.25865 23.8933C4.59097 24.6804 5.37509 25.2562 6.30765 25.2562V22.4834ZM6.82218 22.837C6.83609 22.8716 6.8558 22.9384 6.8558 23.0246H4.08307C4.08307 23.3477 4.15345 23.6321 4.24952 23.8711L6.82218 22.837ZM6.8558 23.0246V22.269H4.08307V23.0246H6.8558ZM5.46944 20.8826H4.39294V23.6553H5.46944V20.8826ZM3.00658 22.269V23.0246H5.77931V22.269H3.00658ZM3.00658 23.0246C3.00658 23.2136 3.0226 23.4081 3.05725 23.6002L5.78596 23.1081C5.78242 23.0885 5.77931 23.0592 5.77931 23.0246H3.00658ZM3.05526 23.5889C3.32141 25.1382 4.66767 26.3414 6.3077 26.3414V23.5687C6.06201 23.5687 5.83307 23.382 5.78796 23.1194L3.05526 23.5889ZM6.3077 26.3414H19.1126V23.5687H6.3077V26.3414ZM19.1126 26.3414C20.9476 26.3414 22.4141 24.8409 22.4141 23.0246H19.6413C19.6413 23.3336 19.3924 23.5687 19.1126 23.5687V26.3414ZM22.4141 23.0246V5.64519H19.6413V23.0246H22.4141ZM22.4141 5.64513C22.414 3.82388 20.9463 2.32799 19.1126 2.32799V5.10072C19.3937 5.10072 19.6413 5.33394 19.6413 5.64526L22.4141 5.64513Z" fill="#73B1A8" mask="url(#path-11-inside-6)"/>
</svg>
