<svg width="47" height="37" viewBox="0 0 47 37" fill="none" xmlns="http://www.w3.org/2000/svg">
<path d="M47 8.67196C47 6.70117 45.4007 5.10336 43.4299 5.10336C41.4578 5.10336 39.8585 6.70117 39.8585 8.67196C39.8585 9.63583 40.2415 10.5094 40.8626 11.1505C38.4342 16.1792 33.7927 17.9348 30.1955 16.3456C26.9912 14.9285 25.8093 10.8779 25.4091 7.73967C26.7157 7.05266 27.6065 5.68425 27.6065 4.10506C27.6064 1.83741 25.7691 0 23.5 0C21.2323 0 19.3936 1.83741 19.3936 4.10506C19.3936 5.68425 20.2843 7.05257 21.591 7.73967C21.1908 10.878 20.009 14.9286 16.8046 16.3456C13.2073 17.9349 8.56584 16.1792 6.13754 11.1505C6.75864 10.5094 7.14161 9.63583 7.14161 8.67196C7.14161 6.70117 5.54233 5.10336 3.57154 5.10336C1.59929 5.10336 0 6.70117 0 8.67196C0 10.4878 1.35685 11.9838 3.10962 12.2105L7.22469 27.2723H39.7753L43.8904 12.2105C45.6445 11.9838 47 10.4878 47 8.67196Z" fill="#FFE144"/>
<path d="M41.769 33.6951C41.769 35.1623 40.58 36.3515 39.1113 36.3515H7.88884C6.42147 36.3514 5.23242 35.1623 5.23242 33.6951V33.4742C5.23242 32.0055 6.42147 30.8164 7.88884 30.8164H39.1113C40.58 30.8164 41.769 32.0055 41.769 33.4742V33.6951Z" fill="#FFE144"/>
</svg>
