<svg width="98" height="24" viewBox="0 0 98 24" fill="none" xmlns="http://www.w3.org/2000/svg">
<path d="M35.3228 9.35689C36.0513 10.0175 36.4235 10.8748 36.4393 11.9289V20.7279H33.7417V12.85C33.7026 12.1782 33.5016 11.6512 33.1388 11.2688C32.776 10.8864 32.2294 10.685 31.499 10.6645C30.9953 10.6578 30.4969 10.7685 30.0434 10.988C29.5899 11.2075 29.1938 11.5296 28.8865 11.9289C28.1971 12.7737 27.8524 13.8473 27.8524 15.1498V20.7321H25.173V8.82379H27.5887L27.5677 10.1077C27.9864 9.24525 28.5446 8.93543 29.1698 8.64655C30.1636 8.21446 31.2471 8.02917 32.328 8.10647C33.4329 8.19802 34.4809 8.63557 35.3228 9.35689Z" fill="white"/>
<path d="M7.97277 13.6958H6.50604V19.0003H7.97277V13.6958Z" fill="white"/>
<path d="M9.19134 12.7235L8.16235 13.6704L11.1031 16.8662L12.1321 15.9194L9.19134 12.7235Z" fill="white"/>
<path d="M13.5955 10.0898H12.0855V15.8549H13.5955V10.0898Z" fill="white"/>
<path d="M17.8798 5.92822H16.3866V11.4239H17.8798V5.92822Z" fill="white"/>
<path d="M3.40789 8.38721H1.89929V14.1969H3.40789V8.38721Z" fill="white"/>
<path d="M7.15782 14.5135C6.63895 14.5138 6.13166 14.3601 5.70016 14.072C5.26866 13.7838 4.93235 13.3742 4.73379 12.8948C4.53522 12.4154 4.48334 11.8879 4.5847 11.379C4.68607 10.8702 4.93612 10.4028 5.30321 10.0361C5.6703 9.66939 6.13793 9.41984 6.64691 9.31902C7.15589 9.2182 7.68333 9.27065 8.1625 9.46972C8.64166 9.66879 9.05099 10.0055 9.33868 10.4374C9.62638 10.8692 9.7795 11.3766 9.77867 11.8955C9.77719 12.5899 9.50051 13.2553 9.00924 13.7461C8.51798 14.2368 7.8522 14.5128 7.15782 14.5135ZM7.15782 10.666C6.91514 10.6657 6.67784 10.7374 6.47593 10.872C6.27401 11.0067 6.11657 11.1982 6.02351 11.4223C5.93045 11.6464 5.90596 11.8931 5.95313 12.1311C6.00031 12.3692 6.11703 12.5879 6.28853 12.7596C6.46003 12.9313 6.6786 13.0483 6.91659 13.0957C7.15459 13.1431 7.40131 13.1189 7.62554 13.0261C7.84977 12.9333 8.04143 12.7761 8.17628 12.5743C8.31114 12.3726 8.38312 12.1354 8.38312 11.8927C8.38238 11.5681 8.253 11.257 8.02333 11.0276C7.79367 10.7982 7.48243 10.6692 7.15782 10.6688V10.666Z" fill="white"/>
<path d="M12.8056 20.1825C12.2868 20.1828 11.7797 20.0292 11.3482 19.7411C10.9168 19.4531 10.5805 19.0436 10.3818 18.5644C10.1832 18.0852 10.1311 17.5578 10.2323 17.049C10.3334 16.5402 10.5832 16.0728 10.95 15.706C11.3168 15.3392 11.7842 15.0894 12.293 14.9883C12.8018 14.8872 13.3291 14.9392 13.8083 15.1379C14.2875 15.3365 14.6971 15.6728 14.9851 16.1043C15.2731 16.5357 15.4267 17.0429 15.4264 17.5616C15.4253 18.2564 15.1489 18.9224 14.6576 19.4136C14.1663 19.9049 13.5003 20.1814 12.8056 20.1825ZM12.8056 16.3349C12.5629 16.3347 12.3256 16.4064 12.1237 16.541C11.9218 16.6756 11.7643 16.8671 11.6713 17.0912C11.5782 17.3154 11.5537 17.562 11.6009 17.8001C11.6481 18.0381 11.7648 18.2568 11.9363 18.4285C12.1078 18.6002 12.3264 18.7172 12.5644 18.7646C12.8024 18.8121 13.0491 18.7879 13.2733 18.6951C13.4975 18.6023 13.6892 18.445 13.8241 18.2433C13.9589 18.0415 14.0309 17.8043 14.0309 17.5616C14.0305 17.2366 13.9014 16.9251 13.6717 16.6951C13.442 16.4652 13.1306 16.3357 12.8056 16.3349Z" fill="white"/>
<path d="M17.0886 15.8158C16.5699 15.8158 16.0628 15.662 15.6316 15.3738C15.2003 15.0856 14.8642 14.6759 14.6658 14.1967C14.4674 13.7175 14.4155 13.1902 14.5168 12.6814C14.6181 12.1727 14.868 11.7055 15.2348 11.3388C15.6017 10.9722 16.0691 10.7225 16.5778 10.6215C17.0866 10.5205 17.6139 10.5726 18.093 10.7713C18.5721 10.97 18.9816 11.3063 19.2696 11.7377C19.5575 12.1691 19.7111 12.6762 19.7108 13.1949C19.7101 13.89 19.4335 14.5564 18.9419 15.0478C18.4502 15.5392 17.7837 15.8154 17.0886 15.8158ZM17.0886 11.9682C16.8459 11.9682 16.6088 12.0402 16.407 12.175C16.2053 12.3098 16.0481 12.5013 15.9552 12.7255C15.8624 12.9496 15.8381 13.1963 15.8854 13.4342C15.9328 13.6722 16.0496 13.8908 16.2212 14.0623C16.3927 14.2339 16.6113 14.3507 16.8492 14.3981C17.0872 14.4454 17.3338 14.4211 17.558 14.3282C17.7821 14.2354 17.9737 14.0782 18.1085 13.8764C18.2433 13.6747 18.3152 13.4375 18.3152 13.1949C18.3152 13.0338 18.2835 12.8743 18.2219 12.7255C18.1602 12.5767 18.0699 12.4414 17.956 12.3275C17.8421 12.2136 17.7068 12.1233 17.558 12.0616C17.4092 12 17.2496 11.9682 17.0886 11.9682Z" fill="white"/>
<path d="M12.8056 11.0892C12.2869 11.0895 11.7798 10.9359 11.3484 10.648C10.917 10.36 10.5806 9.95056 10.382 9.47143C10.1833 8.9923 10.1311 8.46501 10.2322 7.95625C10.3332 7.4475 10.5828 6.98013 10.9495 6.61326C11.3162 6.24639 11.7834 5.99651 12.2921 5.89522C12.8008 5.79392 13.3281 5.84577 13.8074 6.0442C14.2866 6.24263 14.6962 6.57873 14.9844 7.00999C15.2726 7.44124 15.4264 7.94828 15.4264 8.46697C15.4257 9.16197 15.1494 9.82831 14.6581 10.3199C14.1668 10.8114 13.5006 11.0881 12.8056 11.0892ZM12.8056 7.24168C12.5629 7.2414 12.3255 7.31315 12.1235 7.44783C11.9216 7.58251 11.7642 7.77408 11.6711 7.99829C11.5781 8.2225 11.5537 8.46926 11.601 8.70734C11.6483 8.94543 11.7652 9.16413 11.9368 9.33577C12.1084 9.50741 12.3271 9.62427 12.5652 9.67156C12.8033 9.71885 13.0501 9.69444 13.2743 9.60142C13.4985 9.5084 13.69 9.35095 13.8247 9.14901C13.9594 8.94707 14.0312 8.70971 14.0309 8.46697C14.0305 8.14212 13.9013 7.83067 13.6716 7.60097C13.4419 7.37126 13.1304 7.24205 12.8056 7.24168Z" fill="white"/>
<path d="M17.1542 6.74352C16.6355 6.74352 16.1286 6.58973 15.6973 6.30159C15.2661 6.01345 14.93 5.60391 14.7315 5.12476C14.5331 4.64561 14.4811 4.11836 14.5823 3.6097C14.6835 3.10103 14.9332 2.63379 15.3 2.26706C15.6667 1.90034 16.1339 1.65059 16.6426 1.54941C17.1513 1.44823 17.6785 1.50016 18.1577 1.69863C18.6368 1.8971 19.0464 2.2332 19.3345 2.66443C19.6226 3.09566 19.7764 3.60264 19.7764 4.12127C19.7757 4.81651 19.4992 5.48306 19.0076 5.97466C18.516 6.46627 17.8494 6.74278 17.1542 6.74352ZM17.1542 2.89597C16.9115 2.89597 16.6743 2.96795 16.4725 3.10281C16.2708 3.23766 16.1135 3.42932 16.0207 3.65355C15.9279 3.87778 15.9037 4.1245 15.9512 4.3625C15.9986 4.60049 16.1156 4.81906 16.2873 4.99056C16.459 5.16206 16.6777 5.27878 16.9157 5.32596C17.1538 5.37313 17.4004 5.34864 17.6246 5.25558C17.8487 5.16252 18.0402 5.00508 18.1748 4.80316C18.3094 4.60125 18.3811 4.36395 18.3809 4.12127C18.3805 3.79617 18.2511 3.48452 18.0211 3.25477C17.7911 3.02502 17.4793 2.89597 17.1542 2.89597Z" fill="white"/>
<path d="M7.15782 23.0394C6.63907 23.0397 6.1319 22.8861 5.70046 22.5981C5.26902 22.31 4.9327 21.9005 4.73405 21.4213C4.53541 20.9421 4.48336 20.4147 4.5845 19.9059C4.68563 19.3971 4.93541 18.9298 5.30222 18.563C5.66903 18.1962 6.1364 17.9464 6.64519 17.8452C7.15399 17.7441 7.68135 17.7962 8.16056 17.9948C8.63977 18.1934 9.0493 18.5298 9.33733 18.9612C9.62536 19.3926 9.77895 19.8998 9.77867 20.4186C9.77793 21.1134 9.50157 21.7796 9.01023 22.271C8.51888 22.7623 7.85269 23.0387 7.15782 23.0394ZM7.15782 19.1919C6.91515 19.1916 6.67784 19.2633 6.47593 19.3979C6.27402 19.5326 6.11657 19.724 6.02351 19.9482C5.93045 20.1723 5.90596 20.419 5.95313 20.657C6.00031 20.8951 6.11703 21.1138 6.28853 21.2855C6.46003 21.4572 6.6786 21.5741 6.9166 21.6216C7.15459 21.669 7.40131 21.6448 7.62554 21.552C7.84977 21.4592 8.04143 21.302 8.17629 21.1002C8.31114 20.8985 8.38312 20.6612 8.38312 20.4186C8.38312 20.0935 8.25407 19.7817 8.02432 19.5517C7.79457 19.3216 7.48292 19.1922 7.15782 19.1919Z" fill="white"/>
<path d="M2.61946 9.22852C2.10116 9.22824 1.59458 9.0743 1.16377 8.78615C0.732957 8.498 0.397253 8.08858 0.199101 7.60966C0.000949217 7.13074 -0.0507533 6.60381 0.0505304 6.09551C0.151814 5.58721 0.401536 5.12035 0.768124 4.75395C1.13471 4.38756 1.60171 4.13809 2.11006 4.03707C2.61842 3.93606 3.14531 3.98804 3.62413 4.18645C4.10295 4.38486 4.51219 4.72078 4.80011 5.15175C5.08803 5.58271 5.2417 6.08937 5.2417 6.60767C5.24096 7.30278 4.96441 7.96918 4.47276 8.46057C3.98112 8.95195 3.31456 9.22815 2.61946 9.22852ZM2.61946 5.38237C2.37718 5.38265 2.14041 5.45474 1.9391 5.58955C1.73778 5.72435 1.58095 5.91582 1.48843 6.13973C1.3959 6.36365 1.37183 6.60997 1.41927 6.84757C1.46671 7.08516 1.58351 7.30335 1.75493 7.47458C1.92635 7.6458 2.14468 7.76236 2.38232 7.80952C2.61997 7.85669 2.86626 7.83234 3.09007 7.73956C3.31389 7.64678 3.50517 7.48973 3.63974 7.28826C3.77432 7.08679 3.84615 6.84995 3.84615 6.60767C3.84578 6.28257 3.71637 5.97092 3.48637 5.74117C3.25636 5.51142 2.94455 5.38237 2.61946 5.38237Z" fill="white"/>
<path d="M2.61946 18.7007C2.10116 18.7004 1.59458 18.5465 1.16377 18.2583C0.732957 17.9702 0.397253 17.5607 0.199101 17.0818C0.000949217 16.6029 -0.0507533 16.076 0.0505304 15.5677C0.151814 15.0594 0.401536 14.5925 0.768124 14.2261C1.13471 13.8597 1.60171 13.6103 2.11006 13.5092C2.61842 13.4082 3.14531 13.4602 3.62413 13.6586C4.10295 13.857 4.51219 14.1929 4.80011 14.6239C5.08803 15.0549 5.2417 15.5615 5.2417 16.0798C5.24096 16.7749 4.96441 17.4413 4.47276 17.9327C3.98112 18.4241 3.31456 18.7003 2.61946 18.7007ZM2.61946 14.8545C2.37718 14.8548 2.14041 14.9269 1.9391 15.0617C1.73778 15.1965 1.58095 15.388 1.48843 15.6119C1.3959 15.8358 1.37183 16.0821 1.41927 16.3197C1.46671 16.5573 1.58351 16.7755 1.75493 16.9467C1.92635 17.118 2.14468 17.2345 2.38232 17.2817C2.61997 17.3289 2.86626 17.3045 3.09007 17.2117C3.31389 17.1189 3.50517 16.9619 3.63974 16.7604C3.77432 16.559 3.84615 16.3221 3.84615 16.0798C3.84578 15.7547 3.71637 15.4431 3.48637 15.2133C3.25636 14.9836 2.94455 14.8545 2.61946 14.8545Z" fill="white"/>
<path d="M49.8199 8.90771H52.3835V20.5564H49.764L49.8199 8.90771ZM49.764 15.6887V13.3819V15.6887Z" fill="white"/>
<path d="M67.6132 8.90771L61.3946 20.8941H61.2551L54.7825 8.90771H57.9057L61.4225 16.3362L64.6867 8.90771H67.6132Z" fill="white"/>
<path d="M73.455 8.90771V20.5564H70.8383V8.90771H73.455Z" fill="white"/>
<path d="M96.0574 3.7876V8.93161H98V11.0249H96.0574V20.5566H93.4059V11.0249H91.2679V8.93161H93.4073V3.7876H96.0574Z" fill="white"/>
<path d="M45.7923 21.0183C44.5343 21.0185 43.3045 20.6458 42.2584 19.9472C41.2122 19.2486 40.3967 18.2555 39.9149 17.0935C39.4332 15.9314 39.3067 14.6526 39.5517 13.4188C39.7966 12.1849 40.4019 11.0513 41.291 10.1614C42.1802 9.27154 43.3132 8.66525 44.5468 8.41923C45.7805 8.1732 47.0594 8.29849 48.2219 8.77925C49.3843 9.26001 50.3782 10.0747 51.0777 11.1202C51.7772 12.1657 52.151 13.3952 52.1518 14.6531C52.1514 16.3402 51.4815 17.9581 50.2891 19.1516C49.0967 20.345 47.4793 21.0164 45.7923 21.0183ZM45.7923 10.567C44.9827 10.5667 44.1912 10.8066 43.518 11.2563C42.8449 11.7059 42.3202 12.3452 42.0104 13.0932C41.7007 13.8412 41.6198 14.6642 41.778 15.4582C41.9361 16.2522 42.3263 16.9814 42.899 17.5535C43.4718 18.1257 44.2014 18.5151 44.9955 18.6724C45.7896 18.8298 46.6126 18.7481 47.3603 18.4375C48.1079 18.127 48.7467 17.6017 49.1957 16.9281C49.6447 16.2544 49.8837 15.4627 49.8826 14.6531C49.8801 13.5695 49.4481 12.531 48.6815 11.7651C47.9148 10.9993 46.8759 10.5684 45.7923 10.567Z" fill="white"/>
<path d="M71.9618 1.79468C72.2478 1.79468 72.5274 1.87951 72.7652 2.03844C73.003 2.19737 73.1883 2.42325 73.2977 2.68752C73.407 2.95178 73.4356 3.24256 73.3797 3.52305C73.3238 3.80355 73.186 4.06116 72.9836 4.2633C72.7813 4.46544 72.5235 4.60303 72.243 4.65866C71.9624 4.71429 71.6717 4.68546 71.4075 4.57582C71.1434 4.46617 70.9177 4.28064 70.759 4.0427C70.6003 3.80476 70.5157 3.52509 70.516 3.23908C70.516 3.04928 70.5534 2.86135 70.6261 2.68601C70.6987 2.51068 70.8053 2.35139 70.9395 2.21724C71.0738 2.0831 71.2332 1.97674 71.4086 1.90423C71.584 1.83172 71.772 1.7945 71.9618 1.79468ZM71.9618 3.00516e-07C71.3208 -0.000275706 70.6941 0.189576 70.1609 0.545538C69.6278 0.9015 69.2123 1.40758 68.9668 1.99976C68.7214 2.59193 68.6571 3.2436 68.7821 3.87232C68.9071 4.50104 69.2158 5.07857 69.669 5.53184C70.1223 5.98511 70.6998 6.29377 71.3285 6.41876C71.9573 6.54375 72.6089 6.47946 73.2011 6.23402C73.7933 5.98858 74.2994 5.57303 74.6553 5.03992C75.0113 4.50681 75.2011 3.88011 75.2009 3.23908C75.1998 2.38036 74.8581 1.55713 74.2509 0.949929C73.6437 0.342723 72.8205 0.00110809 71.9618 3.00516e-07Z" fill="white"/>
<path d="M83.0522 19.8711C82.0672 19.8712 81.1021 19.593 80.2683 19.0685C79.4345 18.544 78.7659 17.7945 78.3397 16.9064C77.9134 16.0184 77.7467 15.0279 77.8589 14.0493C77.9712 13.0707 78.3577 12.1436 78.9739 11.3751C79.5902 10.6067 80.4111 10.028 81.3419 9.70579C82.2728 9.38361 83.2758 9.33108 84.2353 9.55424C85.1947 9.7774 86.0716 10.2672 86.7647 10.9671C87.4579 11.667 87.9391 12.5486 88.153 13.5101H89.3141C89.0308 11.9475 88.1731 10.5475 86.9097 9.58534C85.6463 8.62317 84.0687 8.1685 82.487 8.31073C80.9053 8.45296 79.4341 9.18181 78.3626 10.3539C77.2912 11.5261 76.697 13.0567 76.697 14.6447C76.697 16.2328 77.2912 17.7634 78.3626 18.9355C79.4341 20.1076 80.9053 20.8365 82.487 20.9787C84.0687 21.1209 85.6463 20.6662 86.9097 19.7041C88.1731 18.7419 89.0308 17.3419 89.3141 15.7793H88.1572C87.8989 16.9405 87.2523 17.9788 86.3241 18.7228C85.396 19.4667 84.2418 19.8718 83.0522 19.8711Z" fill="white"/>
<path d="M83.0522 9.41846C82.0671 9.41828 81.1021 9.69649 80.2683 10.221C79.4345 10.7455 78.7659 11.495 78.3396 12.3831C77.9133 13.2711 77.7467 14.2616 77.8589 15.2402C77.9711 16.2189 78.3577 17.1459 78.9739 17.9144C79.5902 18.6829 80.411 19.2616 81.3419 19.5837C82.2728 19.9059 83.2758 19.9584 84.2352 19.7353C85.1947 19.5121 86.0716 19.0223 86.7647 18.3224C87.4579 17.6225 87.9391 16.741 88.153 15.7794H86.9835C86.7101 16.7267 86.1039 17.5434 85.2763 18.0793C84.4487 18.6152 83.4555 18.8343 82.4792 18.6963C81.503 18.5582 80.6094 18.0723 79.9629 17.3279C79.3164 16.5835 78.9604 15.6308 78.9604 14.6448C78.9604 13.6589 79.3164 12.7061 79.9629 11.9617C80.6094 11.2173 81.503 10.7314 82.4792 10.5934C83.4555 10.4553 84.4487 10.6744 85.2763 11.2103C86.1039 11.7462 86.7101 12.5629 86.9835 13.5102H88.153C87.8949 12.3498 87.2489 11.312 86.3216 10.5681C85.3942 9.82419 84.241 9.41868 83.0522 9.41846Z" fill="white"/>
</svg>
