<svg width="24" height="24" viewBox="0 0 24 24" fill="none" xmlns="http://www.w3.org/2000/svg">
<path d="M16.8642 10.5H7.13563C6.85776 10.5 6.63257 10.7252 6.63257 11.003V12.9968C6.63257 13.2746 6.8578 13.5 7.13563 13.5H16.8642C17.142 13.5 17.3672 13.2745 17.3672 12.9968V11.003C17.3672 10.7252 17.142 10.5 16.8642 10.5Z" fill="#5CC4DE"/>
<path d="M12 0C5.37248 0 0 5.37267 0 12C0 18.6275 5.37248 24 12 24C18.6273 24 24 18.6275 24 12C24 5.37267 18.6273 0 12 0ZM12 21C7.0373 21 3 16.9627 3 12C3 7.03748 7.0373 3 12 3C16.9625 3 21 7.03748 21 12C21 16.9627 16.9625 21 12 21Z" fill="#5CC4DE"/>
</svg>
