<svg width="24" height="24" viewBox="0 0 24 24" fill="none" xmlns="http://www.w3.org/2000/svg">
<path d="M16.8398 10.5002H14.0278C13.7364 10.5002 13.5001 10.2638 13.5001 9.97247V7.16034C13.5001 6.86902 13.2639 6.63281 12.9725 6.63281H11.0278C10.7364 6.63281 10.5001 6.86902 10.5001 7.16034V9.97247C10.5001 10.2638 10.2639 10.5002 9.97247 10.5002H7.16053C6.86902 10.5002 6.63281 10.7364 6.63281 11.0279V12.9725C6.63281 13.2638 6.86902 13.5002 7.16053 13.5002H9.97247C10.2639 13.5002 10.5001 13.7364 10.5001 14.0279V16.8397C10.5001 17.1312 10.7364 17.3674 11.0278 17.3674H12.9725C13.2639 17.3674 13.5001 17.1312 13.5001 16.8397V14.0279C13.5001 13.7364 13.7364 13.5002 14.0278 13.5002H16.8398C17.1312 13.5002 17.3675 13.2638 17.3675 12.9725V11.0279C17.3675 10.7364 17.1312 10.5002 16.8398 10.5002Z" fill="#5CC4DE"/>
<path d="M12 0C5.37248 0 0 5.37267 0 12C0 18.6275 5.37248 24 12 24C18.6273 24 24 18.6275 24 12C24 5.37267 18.6273 0 12 0ZM12 21C7.0373 21 3 16.9627 3 12C3 7.03748 7.0373 3 12 3C16.9625 3 21 7.03748 21 12C21 16.9627 16.9625 21 12 21Z" fill="#5CC4DE"/>
</svg>
