<svg width="16" height="20" viewBox="0 0 16 20" fill="none" xmlns="http://www.w3.org/2000/svg">
<path d="M15.3001 2.72449C15.3001 2.72449 15.4188 2.80652 13.5724 2.25707C11.9171 1.76473 10.3513 1.65906 10.3513 1.65906L10.2428 0.905273C10.1682 0.385039 9.73355 0 9.22158 0H7.99962H6.77767C6.26637 0 5.83167 0.385039 5.75644 0.905273L5.64792 1.65906C5.64792 1.65906 4.08283 1.76473 2.42757 2.25707C0.58042 2.80656 0.699103 2.72449 0.699103 2.72449C0.287519 2.83578 0 3.21883 0 3.65668V4.30883H7.99966H16V3.65668C16 3.21883 15.7124 2.83578 15.3001 2.72449Z" fill="#BBBBBB"/>
<path d="M1.32593 18.1537C1.42018 19.1988 2.31359 20.0002 3.38469 20.0002H12.6148C13.6855 20.0002 14.5793 19.1988 14.6735 18.1537L15.6958 5.37207H0.303711L1.32593 18.1537ZM11.4291 8.19953C11.4494 7.87133 11.7373 7.62113 12.0723 7.64109C12.4073 7.66102 12.6622 7.94309 12.6422 8.27133L12.0645 17.6265C12.0441 17.9547 11.7563 18.2046 11.4213 18.1846C11.0863 18.1647 10.831 17.883 10.8514 17.5548L11.4291 8.19953ZM7.39198 8.23543C7.39198 7.90652 7.66391 7.64008 7.99955 7.64008C8.33523 7.64008 8.60712 7.90652 8.60712 8.23543V17.5906C8.60712 17.9195 8.33519 18.1859 7.99955 18.1859C7.66387 18.1859 7.39198 17.9195 7.39198 17.5906V8.23543ZM3.92684 7.64109C4.26184 7.62117 4.54972 7.87133 4.57005 8.19953L5.14848 17.5547C5.16881 17.8829 4.9135 18.1646 4.57854 18.1846C4.24354 18.2045 3.95566 17.9546 3.93533 17.6264L3.35691 8.27125C3.33653 7.94309 3.59184 7.66102 3.92684 7.64109Z" fill="#BBBBBB"/>
</svg>
