<svg width="47" height="46" viewBox="0 0 47 46" fill="none" xmlns="http://www.w3.org/2000/svg">
<circle cx="23.2212" cy="23" r="23" fill="#5CC4DE"/>
<path d="M19.0832 34C28.5172 34 33.6772 25.92 33.6772 18.913C33.6772 18.6835 33.6772 18.4551 33.6622 18.2276C34.666 17.477 35.5325 16.5476 36.2212 15.4829C35.2851 15.9117 34.292 16.193 33.2752 16.3172C34.3459 15.6545 35.1473 14.6123 35.5302 13.3844C34.5233 14.002 33.4218 14.4373 32.2732 14.6714C31.4998 13.8213 30.4771 13.2584 29.3631 13.0698C28.2491 12.8812 27.106 13.0774 26.1107 13.628C25.1155 14.1786 24.3235 15.053 23.8574 16.1159C23.3913 17.1787 23.277 18.3707 23.5322 19.5074C21.4929 19.4018 19.498 18.8539 17.6768 17.8995C15.8557 16.9451 14.249 15.6054 12.9612 13.9674C12.3053 15.1347 12.1044 16.5166 12.3994 17.8316C12.6944 19.1467 13.4632 20.296 14.5492 21.0457C13.7329 21.0207 12.9345 20.7931 12.2212 20.382C12.2212 20.4037 12.2212 20.4265 12.2212 20.4492C12.2215 21.6734 12.6315 22.8599 13.3815 23.8072C14.1315 24.7546 15.1754 25.4046 16.3362 25.6471C15.5811 25.86 14.7888 25.8911 14.0202 25.738C14.348 26.7916 14.9861 27.713 15.8453 28.3732C16.7045 29.0335 17.7418 29.3996 18.8122 29.4204C16.9959 30.896 14.7523 31.6971 12.4422 31.6947C12.0341 31.6939 11.6264 31.6683 11.2212 31.6182C13.5668 33.1743 16.2961 33.9997 19.0832 33.9959" fill="white"/>
</svg>
