<svg width="26" height="27" viewBox="0 0 26 27" fill="none" xmlns="http://www.w3.org/2000/svg">
<path d="M24.978 7.97489C23.9902 5.63056 22.3433 3.63858 20.269 2.23053C18.1951 0.822487 15.6897 -0.000407904 13.0002 1.51688e-07C11.2073 1.51688e-07 9.49508 0.365261 7.93924 1.02616C5.60605 2.01829 3.62248 3.67301 2.22107 5.75608C0.819254 7.83926 -0.00040591 10.356 3.39639e-07 13.0576C-0.00040591 14.8584 0.363645 16.5779 1.02162 18.1407C2.00936 20.4846 3.65671 22.477 5.73102 23.8846C7.80457 25.2927 10.3102 26.1156 13.0002 26.1156C14.7927 26.1156 16.505 25.7499 18.0604 25.089C20.3939 24.0968 22.3771 22.4426 23.7789 20.3591C25.1807 18.2759 26 15.7595 26 13.0576C26 11.2571 25.6359 9.53723 24.978 7.97489ZM15.166 17.5757C14.6613 18.2933 15.0612 19.377 14.4709 19.999C13.8767 20.6235 13.5848 20.4275 13.207 21.3107C13.1599 21.4216 12.5143 22.8791 12.3301 22.4166C12.4974 22.8337 12.343 23.2269 11.8576 23.2265C11.3758 23.2257 11.9451 23.6302 11.4774 23.7453C11.3386 23.7825 11.3234 24.0664 11.3826 24.4316C11.0282 24.3814 10.6783 24.315 10.3348 24.2328C9.86466 22.7478 9.60426 20.9927 9.60101 20.5298C9.59339 18.9266 9.2692 19.5591 8.48666 18.3795C7.9557 17.5769 7.49694 16.7119 7.51948 15.7331C7.51385 15.9093 8.54395 13.254 7.79929 13.7597C6.89457 14.3749 6.73131 12.9069 5.86087 12.7813C5.41653 12.7174 5.54597 12.2286 5.04481 12.3083C4.59408 12.38 4.07479 11.9127 3.73049 11.6624C3.50797 11.4996 3.09024 9.16299 2.74879 9.1687C2.26581 9.17151 3.12213 10.7987 2.94592 10.838C2.73345 10.8809 2.40566 10.0462 2.17872 9.32744C2.26383 9.07638 2.35772 8.82854 2.46015 8.58595C3.32775 6.52471 4.77918 4.76961 6.60552 3.53045C7.22643 3.10887 7.89161 2.74928 8.59076 2.45532C8.62464 2.45364 8.65886 2.45165 8.69273 2.44675C9.3245 2.37187 11.1763 1.64293 11.694 2.2111C11.9117 2.44354 8.89434 3.5434 8.80643 4.01522C8.7488 4.32299 9.55028 4.26913 9.62046 4.27397C10.426 4.32299 9.38544 5.13288 9.87685 5.27218C10.6167 5.47141 11.3529 2.10577 11.9201 3.81838C12.152 4.51371 13.1421 3.29275 13.2123 4.1488C13.2845 5.04178 14.0969 5.26611 12.581 5.50865C11.188 5.73379 12.3048 6.30283 11.3928 6.78183C10.53 7.23539 9.7761 7.44798 9.16693 8.26114C8.48473 9.17314 8.42669 9.14437 8.1574 10.2613C8.01186 10.8667 7.28452 9.84863 7.56757 9.4623C7.46875 9.59594 6.61045 9.17355 6.52412 9.3914C6.35644 9.81379 5.90444 9.58538 5.54811 9.83929C5.09697 10.1592 4.65989 11.1914 5.11266 11.677C5.4731 12.0666 6.70434 10.842 6.77168 11.2595C6.82327 11.581 6.33425 11.807 6.38788 12.1265C6.4641 12.5882 7.21723 11.9941 7.21723 12.3525C7.21683 12.5833 6.91245 13.8496 7.57646 13.6091C7.93488 13.4795 8.03329 13.7552 8.25942 13.6978C8.56868 13.6192 8.75047 12.8919 9.12102 12.9457C9.55967 13.0093 10.2285 13.2114 10.67 13.3389C11.3908 13.5475 11.3529 14.1586 12.1907 14.2861C13.0466 14.4166 12.7088 15.1876 12.6035 15.6184C12.5132 15.9915 16.5933 15.5538 15.166 17.5757ZM19.9218 6.42351C19.9222 6.42351 20.6806 6.43203 20.8414 6.40693C21.0023 6.38179 20.9971 6.00153 20.9955 5.92053C20.9943 5.83836 20.5601 5.64315 20.6669 5.59052C20.7741 5.53788 21.0422 5.4605 21.1216 5.40745C21.1588 5.38276 21.2519 5.30136 21.3522 5.21107C21.6836 5.56619 21.9929 5.94282 22.2779 6.33843C22.2255 6.37164 22.1715 6.41137 22.1324 6.45105C22.0272 6.55837 21.703 6.41826 21.703 6.41826C21.5619 6.5697 21.4212 6.72236 21.2793 6.87507C21.2095 7.03748 21.1401 7.20065 21.07 7.36342C21.07 7.36342 20.5866 7.60437 20.3701 7.62988C20.1536 7.65497 19.7984 7.45977 19.7424 7.37719C19.6884 7.29456 19.9222 6.42264 19.9218 6.42351ZM23.5395 17.5292C23.4713 17.6912 23.3984 17.8507 23.323 18.0087C23.2472 17.7689 23.1722 17.5559 23.1061 17.4405C22.9485 17.1679 22.7376 16.8404 23.0097 16.1795C23.2822 15.5186 22.8573 14.6944 22.6433 14.4738C22.4292 14.2539 22.43 14.0883 22.6445 13.757C22.8589 13.4262 22.5913 13.3156 22.3764 13.3156C22.161 13.3156 21.9994 12.9289 21.7297 12.984C21.4603 13.0387 20.4302 13.3152 20.0476 13.2597C19.6678 13.205 18.4611 12.038 18.4587 11.7593C18.4587 11.4812 18.5095 10.4275 18.6183 10.2622C18.728 10.0966 19.3251 9.34172 19.5404 9.01288C19.7557 8.68368 20.0782 8.2467 20.3491 8.19401C20.6213 8.14137 21.8606 7.93485 22.2331 7.83038C22.6065 7.72546 22.5557 7.92714 22.6658 8.14704C22.7375 8.15678 22.8085 8.16688 22.8798 8.17662C22.8803 8.17662 23.175 8.23497 23.3625 8.37381C23.4008 8.40217 23.4419 8.42931 23.4838 8.45644C24.0974 9.8649 24.4377 11.4195 24.4381 13.0576C24.4377 14.6462 24.1176 16.1551 23.5395 17.5292Z" fill="#979797"/>
</svg>
