<svg width="18" height="18" viewBox="0 0 18 18" fill="none" xmlns="http://www.w3.org/2000/svg">
<path d="M17.2924 5.49664C16.6086 3.88083 15.4684 2.50787 14.0324 1.53738C12.5966 0.566895 10.8621 -0.000281145 9.00014 1.0455e-07C7.75891 1.0455e-07 6.57352 0.251754 5.4964 0.707274C3.88111 1.3911 2.50787 2.5316 1.53766 3.96735C0.567176 5.40316 -0.000281015 7.13784 2.35135e-07 8.99986C-0.000281015 10.2411 0.251754 11.4262 0.707274 12.5034C1.3911 14.1189 2.53157 15.4921 3.96763 16.4623C5.40316 17.4328 7.13784 18 9.00014 18C10.2411 18 11.4265 17.748 12.5034 17.2924C14.1189 16.6086 15.4918 15.4684 16.4623 14.0324C17.4328 12.5966 18 10.8622 18 8.99986C18 7.75888 17.748 6.57348 17.2924 5.49664ZM10.4996 12.114C10.1501 12.6086 10.427 13.3555 10.0183 13.7842C9.60694 14.2146 9.40486 14.0795 9.1433 14.6883C9.11067 14.7647 8.66377 15.7693 8.53622 15.4505C8.65206 15.738 8.54515 16.009 8.20909 16.0087C7.87553 16.0082 8.26966 16.287 7.94588 16.3663C7.84983 16.392 7.83925 16.5876 7.88027 16.8394C7.63492 16.8048 7.39266 16.759 7.15486 16.7023C6.82938 15.6788 6.6491 14.4691 6.64685 14.1501C6.64158 13.045 6.41714 13.481 5.87538 12.668C5.50779 12.1148 5.19019 11.5186 5.2058 10.8439C5.20189 10.9654 5.91504 9.13521 5.39951 9.48382C4.77316 9.9078 4.66014 8.89601 4.05752 8.80945C3.74991 8.76537 3.83952 8.42846 3.49256 8.48345C3.18052 8.53284 2.82101 8.21074 2.58265 8.03827C2.42859 7.92605 2.1394 6.31554 1.90301 6.31948C1.56864 6.32141 2.16148 7.44293 2.03948 7.47C1.89239 7.49957 1.66546 6.9243 1.50834 6.42888C1.56727 6.25584 1.63227 6.08502 1.70318 5.91782C2.30382 4.49712 3.30866 3.28743 4.57305 2.43334C5.00291 2.14277 5.46342 1.89492 5.94745 1.69232C5.9709 1.69116 5.9946 1.68979 6.01805 1.68641C6.45543 1.6348 7.73743 1.13238 8.09582 1.52399C8.24653 1.6842 6.15762 2.44227 6.09676 2.76746C6.05686 2.9796 6.61173 2.94247 6.66032 2.94581C7.218 2.9796 6.49761 3.53781 6.83782 3.63382C7.35001 3.77114 7.85967 1.45139 8.2524 2.6318C8.41293 3.11105 9.0984 2.26951 9.14699 2.85954C9.19695 3.47502 9.75937 3.62964 8.70989 3.7968C7.74555 3.95198 8.51871 4.34419 7.88734 4.67434C7.29 4.98695 6.76807 5.13348 6.34634 5.69394C5.87405 6.32254 5.83386 6.30271 5.64743 7.07252C5.54667 7.48979 5.04313 6.78811 5.23909 6.52184C5.17068 6.61395 4.57647 6.32282 4.5167 6.47297C4.40061 6.7641 4.08769 6.60667 3.841 6.78168C3.52867 7.00218 3.22608 7.71363 3.53953 8.04829C3.78907 8.31681 4.64147 7.47278 4.68809 7.76053C4.7238 7.98216 4.38525 8.1379 4.42238 8.35812C4.47514 8.67632 4.99655 8.26685 4.99655 8.51386C4.99627 8.67298 4.78554 9.54577 5.24524 9.37997C5.49337 9.29064 5.56151 9.48073 5.71806 9.4411C5.93216 9.38696 6.05802 8.88564 6.31455 8.92276C6.61823 8.96657 7.08128 9.10585 7.38689 9.19378C7.88597 9.33757 7.85971 9.75874 8.43972 9.84663C9.03227 9.93653 8.79838 10.468 8.72553 10.7649C8.66299 11.022 11.4877 10.7203 10.4996 12.114ZM13.792 4.42737C13.7923 4.42737 14.3173 4.43324 14.4287 4.41594C14.5401 4.39861 14.5364 4.13652 14.5354 4.08069C14.5345 4.02405 14.2339 3.88951 14.3079 3.85323C14.3821 3.81695 14.5677 3.76362 14.6227 3.72705C14.6484 3.71004 14.7128 3.65393 14.7823 3.5917C15.0118 3.83646 15.2259 4.09605 15.4232 4.36873C15.3869 4.39161 15.3495 4.419 15.3224 4.44635C15.2496 4.52032 15.0251 4.42375 15.0251 4.42375C14.9274 4.52813 14.83 4.63335 14.7318 4.73861C14.6835 4.85054 14.6355 4.96301 14.5869 5.07519C14.5869 5.07519 14.2523 5.24127 14.1024 5.25885C13.9525 5.27614 13.7066 5.1416 13.6678 5.08468C13.6304 5.02773 13.7923 4.42677 13.792 4.42737ZM16.2966 12.0819C16.2494 12.1935 16.1989 12.3035 16.1467 12.4124C16.0942 12.2471 16.0423 12.1003 15.9966 12.0208C15.8874 11.8329 15.7414 11.6071 15.9298 11.1516C16.1185 10.6961 15.8243 10.1281 15.6761 9.97597C15.5279 9.82441 15.5284 9.71026 15.6769 9.48196C15.8254 9.2539 15.6401 9.17771 15.4913 9.17771C15.3423 9.17771 15.2303 8.91116 15.0436 8.94913C14.8571 8.98682 14.144 9.17743 13.8791 9.13918C13.6162 9.1015 12.7808 8.29712 12.7791 8.10506C12.7791 7.91332 12.8143 7.18706 12.8896 7.07316C12.9656 6.959 13.3789 6.43873 13.5279 6.21207C13.677 5.98518 13.9003 5.68399 14.0878 5.64768C14.2762 5.61139 15.1343 5.46905 15.3922 5.39705C15.6506 5.32473 15.6155 5.46374 15.6917 5.6153C15.7414 5.62201 15.7905 5.62897 15.8399 5.63569C15.8402 5.63569 16.0442 5.67591 16.174 5.7716C16.2005 5.79115 16.229 5.80985 16.258 5.82855C16.6828 6.79932 16.9184 7.87085 16.9187 8.99989C16.9184 10.0948 16.6968 11.1348 16.2966 12.0819Z" fill="#73B1A8"/>
</svg>
